#!OML:ASF F:\VICON\USERDATA\INSTALL\rory3\rory3.ASF
:FULLY-SPECIFIED
:DEGREES
647
root -0.598234 25.6411 -1.33171 177.435 4.9047 174.963
lowerback 13.6103 0.498926 -0.22753
upperback 2.70839 0.918905 -0.125942
thorax -4.77453 0.581345 -0.174293
lowerneck -6.947 -0.428877 -5.37972
upperneck 21.0979 0.755101 3.01682
head 7.60119 0.66318 2.02164
rclavicle 8.15017e-015 7.95139e-016
rhumerus -22.528 3.06549 -76.4754
rradius 44.3439
rwrist 5.74966
rhand -28.3601 2.92705
rfingers 7.12502
rthumb -1.73373 -27.0457
lclavicle 8.15017e-015 7.95139e-016
lhumerus -31.5449 21.9371 67.0019
lradius 20.2159
lwrist -10.9944
lhand -31.4882 21.404
lfingers 7.12502
lthumb -4.75455 51.3307
rfemur -6.17364 10.1495 24.5738
rtibia 31.9233
rfoot -23.6241 -15.919
rtoes 10.0461
lfemur -60.2659 15.8141 -23.7195
ltibia 103.491
lfoot -18.3949 -4.60998
ltoes -11.5223
648
root -0.60356 25.6536 -1.35023 177.485 5.02988 175.075
lowerback 13.609 0.527057 -0.0556366
upperback 2.74941 0.983068 -0.154649
thorax -4.72759 0.61226 -0.312274
lowerneck -6.8678 -0.387749 -5.40331
upperneck 20.9334 0.78727 3.06111
head 7.53055 0.676358 2.03866
rclavicle 1.68967e-014 -3.18055e-015
rhumerus -22.4061 3.14436 -76.7472
rradius 44.2984
rwrist 5.97345
rhand -28.3146 3.85313
rfingers 7.12502
rthumb -1.6898 -26.1199
lclavicle 1.68967e-014 -3.18055e-015
lhumerus -31.4637 22.0249 66.9969
lradius 20.2159
lwrist -11.1285
lhand -31.2614 21.7105
lfingers 7.12502
lthumb -4.53557 51.642
rfemur -6.00851 10.1772 24.6704
rtibia 31.6416
rfoot -23.3995 -15.916
rtoes 9.8126
lfemur -60.8576 15.6928 -24.1078
ltibia 102.769
lfoot -18.5786 -4.75215
ltoes -11.4708
649
root -0.609555 25.6644 -1.36858 177.568 5.12169 175.143
lowerback 13.6541 0.541028 0.0556288
upperback 2.71392 1.013 -0.17919
thorax -4.78738 0.623929 -0.407121
lowerneck -6.80726 -0.391323 -5.69881
upperneck 20.966 0.761559 3.40222
head 7.52825 0.674459 2.19912
rclavicle -3.47873e-015 1.19271e-014
rhumerus -22.4435 3.39976 -77.0168
rradius 44.3947
rwrist 6.03421
rhand -28.0452 3.91397
rfingers 7.12502
rthumb -1.42961 -26.061
lclavicle -3.47873e-015 1.19271e-014
lhumerus -31.5224 22.047 66.9668
lradius 20.2471
lwrist -11.2302
lhand -30.9351 21.8633
lfingers 7.12502
lthumb -4.22046 51.8012
rfemur -5.90157 10.1367 24.6958
rtibia 31.3759
rfoot -23.2315 -15.8305
rtoes 9.54916
lfemur -61.4305 15.5711 -24.5523
ltibia 102.033
lfoot -18.8892 -4.84902
ltoes -11.5816
650
root -0.612837 25.6738 -1.38606 177.679 5.17889 175.24
lowerback 13.6837 0.546855 0.115413
upperback 2.68553 1.02819 -0.149616
thorax -4.83303 0.629415 -0.413286
lowerneck -6.74005 -0.399556 -5.89859
upperneck 20.9304 0.730921 3.62106
head 7.50374 0.663901 2.30114
rclavicle -3.27995e-015 -1.03368e-014
rhumerus -22.4778 3.68787 -77.2328
rradius 44.5491
rwrist 6.16989
rhand -27.7811 3.70054
rfingers 7.12502
rthumb -1.17445 -26.276
lclavicle -3.27995e-015 -1.03368e-014
lhumerus -31.5573 22.2054 66.9544
lradius 20.187
lwrist -11.3166
lhand -30.8543 21.3691
lfingers 7.12502
lthumb -4.14242 51.3086
rfemur -5.8285 10.1019 24.7658
rtibia 31.1408
rfoot -23.1542 -15.7114
rtoes 9.52058
lfemur -62.0163 15.4614 -24.9684
ltibia 101.264
lfoot -19.107 -4.70544
ltoes -11.8504
651
root -0.614561 25.6837 -1.40637 177.688 5.26887 175.256
lowerback 13.7633 0.58026 0.0827678
upperback 2.71136 1.07272 -0.135551
thorax -4.84994 0.653567 -0.389114
lowerneck -6.7954 -0.415104 -5.84038
upperneck 20.9274 0.729922 3.47091
head 7.51435 0.652862 2.24196
rclavicle -8.94531e-016 -7.95139e-015
rhumerus -22.4221 3.87968 -77.4361
rradius 44.5463
rwrist 6.47286
rhand -27.7769 3.54418
rfingers 7.12502
rthumb -1.17048 -26.4324
lclavicle -8.94531e-016 -7.95139e-015
lhumerus -31.5348 22.1213 67.1084
lradius 20.2164
lwrist -11.1067
lhand -30.8757 21.1676
lfingers 7.12502
lthumb -4.16308 51.1067
rfemur -5.64996 10.0598 24.779
rtibia 30.9333
rfoot -23.0636 -15.6786
rtoes 9.23099
lfemur -62.365 15.4041 -25.4491
ltibia 100.441
lfoot -19.3561 -4.40373
ltoes -12.3571
652
root -0.616349 25.6897 -1.42601 177.741 5.44708 175.426
lowerback 13.8297 0.64047 0.22754
upperback 2.70367 1.1751 -0.104197
thorax -4.89182 0.701867 -0.457386
lowerneck -6.83754 -0.419824 -5.8449
upperneck 21.0075 0.743949 3.42568
head 7.54827 0.657493 2.23118
rclavicle 1.60022e-014 3.18055e-015
rhumerus -22.4321 4.10185 -77.6537
rradius 44.5939
rwrist 6.62672
rhand -27.7707 3.10885
rfingers 7.12502
rthumb -1.16446 -26.8677
lclavicle 1.60022e-014 3.18055e-015
lhumerus -31.5051 21.8461 67.2931
lradius 20.3121
lwrist -10.7796
lhand -30.8973 21.247
lfingers 7.12502
lthumb -4.18393 51.1856
rfemur -5.54838 10.067 24.9634
rtibia 30.7375
rfoot -22.8631 -15.6714
rtoes 8.48249
lfemur -62.765 15.4674 -25.7367
ltibia 99.654
lfoot -19.6118 -4.22843
ltoes -12.313
653
root -0.618896 25.6939 -1.44784 177.825 5.63069 175.543
lowerback 13.8094 0.696471 0.323295
upperback 2.70322 1.26189 -0.105387
thorax -4.87861 0.742785 -0.52764
lowerneck -6.65776 -0.366703 -5.78644
upperneck 20.8715 0.796493 3.42346
head 7.46837 0.686435 2.22067
rclavicle -8.54774e-015 7.95139e-015
rhumerus -22.5096 4.28463 -77.9123
rradius 44.7711
rwrist 6.72498
rhand -27.6395 2.90172
rfingers 7.12502
rthumb -1.03771 -27.0755
lclavicle -8.54774e-015 7.95139e-015
lhumerus -31.4401 21.5587 67.4345
lradius 20.3664
lwrist -10.4064
lhand -31.0605 20.9638
lfingers 7.12502
lthumb -4.34161 50.8993
rfemur -5.48756 10.1225 25.066
rtibia 30.5756
rfoot -22.8299 -15.559
rtoes 8.15312
lfemur -63.1775 15.5225 -26.0884
ltibia 98.8688
lfoot -19.9532 -4.23115
ltoes -12.3184
654
root -0.619807 25.7001 -1.4712 177.825 5.84222 175.572
lowerback 13.795 0.76387 0.288512
upperback 2.75165 1.35017 -0.104392
thorax -4.81958 0.788798 -0.52166
lowerneck -6.55611 -0.298338 -5.68214
upperneck 20.7361 0.87291 3.36667
head 7.40228 0.723352 2.18674
rclavicle 4.57205e-015 1.51076e-014
rhumerus -22.5079 4.38129 -78.1261
rradius 44.8852
rwrist 7.05893
rhand -27.4699 3.44884
rfingers 7.12502
rthumb -0.873926 -26.5291
lclavicle 4.57205e-015 1.51076e-014
lhumerus -31.4118 21.6355 67.4659
lradius 20.4364
lwrist -10.5449
lhand -31.226 20.4659
lfingers 7.12502
lthumb -4.50141 50.3981
rfemur -5.34651 10.2754 25.0892
rtibia 30.4369
rfoot -22.8519 -15.4282
rtoes 8.12595
lfemur -63.4215 15.643 -26.533
ltibia 98.0371
lfoot -20.3089 -4.17619
ltoes -13.456
655
root -0.621685 25.7063 -1.49193 177.821 5.98231 175.567
lowerback 13.8341 0.801439 0.215015
upperback 2.77563 1.39229 -0.105421
thorax -4.81692 0.811812 -0.489261
lowerneck -6.57585 -0.281548 -5.58567
upperneck 20.8187 0.921247 3.22801
head 7.43232 0.744313 2.13094
rclavicle -7.35503e-015 4.53229e-014
rhumerus -22.4546 4.4972 -78.3199
rradius 44.8545
rwrist 7.57128
rhand -27.2059 4.08028
rfingers 7.12502
rthumb -0.618964 -25.8986
lclavicle -7.35503e-015 4.53229e-014
lhumerus -31.3794 21.6701 67.5407
lradius 20.5831
lwrist -10.649
lhand -31.0428 20.7094
lfingers 7.12502
lthumb -4.3245 50.6453
rfemur -5.23284 10.313 25.0619
rtibia 30.311
rfoot -22.8195 -15.3224
rtoes 8.15734
lfemur -63.5888 15.6802 -26.986
ltibia 97.1914
lfoot -20.4184 -4.08829
ltoes -12.8811
656
root -0.625259 25.7105 -1.51468 177.861 6.12132 175.691
lowerback 13.8825 0.830388 0.286097
upperback 2.77891 1.44336 -0.079472
thorax -4.8386 0.836382 -0.512265
lowerneck -6.47479 -0.274329 -5.66742
upperneck 20.8231 0.932883 3.29319
head 7.4144 0.752085 2.16659
rclavicle -2.18663e-015 1.19271e-014
rhumerus -22.4313 4.62485 -78.5352
rradius 44.8303
rwrist 7.96914
rhand -26.9702 3.84388
rfingers 7.12502
rthumb -0.391294 -26.1355
lclavicle -2.18663e-015 1.19271e-014
lhumerus -31.2878 21.6351 67.6179
lradius 20.6789
lwrist -10.7354
lhand -30.9664 20.9838
lfingers 7.12502
lthumb -4.25069 50.9212
rfemur -5.13621 10.3056 25.1665
rtibia 30.1964
rfoot -22.7174 -15.1951
rtoes 8.24167
lfemur -63.7509 15.6993 -27.2713
ltibia 96.3678
lfoot -20.437 -3.8031
ltoes -11.1652
657
root -0.628952 25.7104 -1.53402 177.999 6.25261 176.022
lowerback 13.8766 0.833725 0.551345
upperback 2.79937 1.49332 0.0214688
thorax -4.80991 0.858772 -0.564551
lowerneck -6.53632 -0.255058 -5.83095
upperneck 20.8055 0.951516 3.42757
head 7.41706 0.757631 2.23961
rclavicle -1.80894e-014 3.18055e-015
rhumerus -22.3126 4.84815 -78.7478
rradius 44.8427
rwrist 8.03702
rhand -26.8288 3.23408
rfingers 7.12502
rthumb -0.254714 -26.7455
lclavicle -1.80894e-014 3.18055e-015
lhumerus -31.1581 21.6778 67.7602
lradius 20.796
lwrist -10.787
lhand -31.1688 20.5788
lfingers 7.12502
lthumb -4.44614 50.5122
rfemur -5.13844 10.319 25.4982
rtibia 30.0879
rfoot -22.5328 -15.1532
rtoes 8.01607
lfemur -64.0767 15.7141 -27.3286
ltibia 95.5953
lfoot -20.5559 -3.27786
ltoes -11.2449
658
root -0.632112 25.7163 -1.55626 178.076 6.29519 176.057
lowerback 13.8568 0.832268 0.56462
upperback 2.84321 1.49591 -0.00164841
thorax -4.75191 0.861979 -0.595709
lowerneck -6.68883 -0.226467 -5.89647
upperneck 20.8535 0.974413 3.56995
head 7.45719 0.773755 2.30133
rclavicle -4.27387e-015 2.3059e-014
rhumerus -22.1568 5.05046 -78.9976
rradius 44.7804
rwrist 8.06604
rhand -26.8708 2.86879
rfingers 7.12502
rthumb -0.29533 -27.1107
lclavicle -4.27387e-015 2.3059e-014
lhumerus -30.9659 21.3697 67.9683
lradius 20.9392
lwrist -10.5239
lhand -31.227 20.4265
lfingers 7.12502
lthumb -4.50234 50.3586
rfemur -5.12008 10.2659 25.5007
rtibia 30.0015
rfoot -22.4674 -15.1047
rtoes 7.79891
lfemur -64.2062 15.645 -27.7204
ltibia 94.7476
lfoot -20.751 -2.60303
ltoes -12.6524
659
root -0.636596 25.7255 -1.58544 178.053 6.30332 175.886
lowerback 13.8606 0.822787 0.373159
upperback 2.8547 1.45305 -0.074982
thorax -4.74487 0.843638 -0.556939
lowerneck -6.63781 -0.197898 -5.8321
upperneck 20.9196 1.01939 3.54536
head 7.46787 0.801723 2.28735
rclavicle 1.17283e-014 1.66979e-014
rhumerus -22.1678 5.28373 -79.2566
rradius 44.6977
rwrist 8.15285
rhand -27.1397 3.23397
rfingers 7.12502
rthumb -0.555044 -26.745
lclavicle 1.17283e-014 1.66979e-014
lhumerus -30.9355 20.9649 68.121
lradius 21.1493
lwrist -10.1981
lhand -31.0397 20.9058
lfingers 7.12502
lthumb -4.32148 50.8417
rfemur -4.97398 10.1823 25.2784
rtibia 29.9319
rfoot -22.4779 -14.9553
rtoes 7.9095
lfemur -64.0701 15.5569 -28.3076
ltibia 93.8474
lfoot -20.9349 -2.24351
ltoes -12.8126
660
root -0.638837 25.7283 -1.61146 178.047 6.43454 175.932
lowerback 13.9336 0.844166 0.317756
upperback 2.8511 1.4758 -0.0489539
thorax -4.7903 0.855741 -0.504153
lowerneck -6.63855 -0.194719 -5.67607
upperneck 21.0013 1.05061 3.35405
head 7.49598 0.814554 2.20268
rclavicle -1.69961e-014 1.11319e-014
rhumerus -22.1912 5.37424 -79.4417
rradius 44.6622
rwrist 8.32395
rhand -27.1389 4.03341
rfingers 7.12502
rthumb -0.554222 -25.9456
lclavicle -1.69961e-014 1.11319e-014
lhumerus -30.8897 20.7793 68.2238
lradius 21.2295
lwrist -10.0871
lhand -30.8252 21.2039
lfingers 7.12502
lthumb -4.1143 51.144
rfemur -4.85446 10.1819 25.3188
rtibia 29.883
rfoot -22.3659 -14.8821
rtoes 7.6113
lfemur -63.987 15.6136 -28.5907
ltibia 93.0038
lfoot -21.0839 -2.13175
ltoes -13.0557
